<svg width="18" height="16" viewBox="0 0 18 16" fill="none" xmlns="http://www.w3.org/2000/svg">
<path d="M7.33333 4H3.16667C2.72464 4 2.30072 4.17559 1.98816 4.48816C1.67559 4.80072 1.5 5.22464 1.5 5.66667V13.1667C1.5 13.6087 1.67559 14.0326 1.98816 14.3452C2.30072 14.6577 2.72464 14.8333 3.16667 14.8333H14.8333C15.2754 14.8333 15.6993 14.6577 16.0118 14.3452C16.3244 14.0326 16.5 13.6087 16.5 13.1667V5.66667C16.5 5.22464 16.3244 4.80072 16.0118 4.48816C15.6993 4.17559 15.2754 4 14.8333 4H10.6667M7.33333 4V3.16667C7.33333 2.72464 7.50893 2.30072 7.82149 1.98816C8.13405 1.67559 8.55797 1.5 9 1.5C9.44203 1.5 9.86595 1.67559 10.1785 1.98816C10.4911 2.30072 10.6667 2.72464 10.6667 3.16667V4M7.33333 4C7.33333 4.44203 7.50893 4.86595 7.82149 5.17851C8.13405 5.49107 8.55797 5.66667 9 5.66667C9.44203 5.66667 9.86595 5.49107 10.1785 5.17851C10.4911 4.86595 10.6667 4.44203 10.6667 4M6.5 10.6667C6.94203 10.6667 7.36595 10.4911 7.67851 10.1785C7.99107 9.86595 8.16667 9.44203 8.16667 9C8.16667 8.55797 7.99107 8.13405 7.67851 7.82149C7.36595 7.50893 6.94203 7.33333 6.5 7.33333C6.05797 7.33333 5.63405 7.50893 5.32149 7.82149C5.00893 8.13405 4.83333 8.55797 4.83333 9C4.83333 9.44203 5.00893 9.86595 5.32149 10.1785C5.63405 10.4911 6.05797 10.6667 6.5 10.6667ZM6.5 10.6667C7.58833 10.6667 8.51417 11.3625 8.85833 12.3333M6.5 10.6667C5.98282 10.6665 5.47831 10.8267 5.05596 11.1252C4.6336 11.4237 4.31418 11.8458 4.14167 12.3333M11.5 8.16667H14M11.5 11.5H13.1667" stroke="#43BE8D" stroke-width="1.6" stroke-linecap="round" stroke-linejoin="round"/>
</svg>
