<svg width="18" height="18" viewBox="0 0 18 18" fill="none" xmlns="http://www.w3.org/2000/svg">
<path d="M5.66667 12.3333L8.06583 9.93417M8.06583 9.93417C8.29725 10.1694 8.57297 10.3566 8.87708 10.4848C9.18118 10.6129 9.50765 10.6797 9.83767 10.681C10.1677 10.6824 10.4947 10.6185 10.7999 10.4928C11.105 10.3672 11.3823 10.1824 11.6157 9.94904C11.8491 9.71571 12.034 9.43848 12.1597 9.13334C12.2854 8.8282 12.3494 8.50119 12.3481 8.17118C12.3468 7.84116 12.2802 7.51467 12.1521 7.21054C12.024 6.9064 11.8369 6.63064 11.6017 6.39917C11.1316 5.93658 10.4978 5.67847 9.83826 5.68108C9.17875 5.68369 8.54699 5.9468 8.08058 6.41309C7.61418 6.87938 7.35093 7.51108 7.34816 8.17059C7.3454 8.8301 7.60335 9.46398 8.06583 9.93417ZM16.5 9C16.5 9.98491 16.306 10.9602 15.9291 11.8701C15.5522 12.7801 14.9997 13.6069 14.3033 14.3033C13.6069 14.9997 12.7801 15.5522 11.8701 15.9291C10.9602 16.306 9.98491 16.5 9 16.5C8.01509 16.5 7.03982 16.306 6.12987 15.9291C5.21993 15.5522 4.39314 14.9997 3.6967 14.3033C3.00026 13.6069 2.44781 12.7801 2.0709 11.8701C1.69399 10.9602 1.5 9.98491 1.5 9C1.5 7.01088 2.29018 5.10322 3.6967 3.6967C5.10322 2.29018 7.01088 1.5 9 1.5C10.9891 1.5 12.8968 2.29018 14.3033 3.6967C15.7098 5.10322 16.5 7.01088 16.5 9Z" stroke="#43BE8D" stroke-width="1.6" stroke-linecap="round" stroke-linejoin="round"/>
</svg>
